<svg width="360" height="800" viewBox="0 0 360 800" fill="none" xmlns="http://www.w3.org/2000/svg">
<g clip-path="url(#clip0_201_228)">
<rect width="360" height="800" fill="#8167D7"/>
<path d="M23.7222 35.4545C23.8803 30.3579 27.8478 26.1965 32.9311 25.7956L348.743 0.887815C354.727 0.415885 359.775 5.28471 359.52 11.2816L327.865 755.91C327.655 760.849 323.867 764.894 318.952 765.427L11.4294 798.761C5.39097 799.416 0.168168 794.58 0.356534 788.509L23.7222 35.4545Z" fill="#AE9AEF" fill-opacity="0.77"/>
<path d="M46.4941 52.6326C46.7887 47.8974 50.37 44.0209 55.0672 43.3531L347.643 1.7569C353.981 0.855702 359.522 6.06046 359.019 12.4431L301.612 740.742C301.252 745.304 297.84 749.041 293.329 749.812L12.4515 797.87C6.09336 798.957 0.383838 793.83 0.784355 787.392L46.4941 52.6326Z" fill="#8167D7"/>
</g>
<defs>
<clipPath id="clip0_201_228">
<rect width="360" height="800" fill="white"/>
</clipPath>
</defs>
</svg>
