<svg width="230" height="130" viewBox="0 0 230 130" fill="none" xmlns="http://www.w3.org/2000/svg">
<path d="M83.8936 91.4143C83.6284 91.4146 83.374 91.5106 83.1865 91.6811C82.9989 91.8516 82.8934 92.0828 82.8931 92.324V128.658C82.8934 128.899 82.9989 129.13 83.1865 129.3C83.374 129.471 83.6284 129.567 83.8936 129.567H90.6786C90.9438 129.567 91.1981 129.471 91.3857 129.3C91.5733 129.13 91.6788 128.899 91.6791 128.658V92.324C91.6788 92.0828 91.5733 91.8516 91.3857 91.6811C91.1981 91.5106 90.9438 91.4146 90.6786 91.4143H83.8936Z" fill="#3F3D56"/>
<path d="M140.316 91.4143C140.051 91.4146 139.796 91.5106 139.609 91.6811C139.421 91.8516 139.316 92.0828 139.315 92.324V128.658C139.316 128.899 139.421 129.13 139.609 129.3C139.796 129.471 140.051 129.567 140.316 129.567H147.101C147.366 129.567 147.62 129.471 147.808 129.3C147.995 129.13 148.101 128.899 148.101 128.658V92.324C148.101 92.0828 147.995 91.8516 147.808 91.6811C147.62 91.5106 147.366 91.4146 147.101 91.4143H140.316Z" fill="#3F3D56"/>
<path d="M172.015 62.5472L119.992 58.896L161.495 65.329L171.441 63.7642L172.015 62.5472Z" fill="#3F3D56"/>
<path d="M161.878 64.7566L171.824 63.1918L171.921 62.9846L172.397 63.0181L171.824 64.2351L161.878 65.7999L120.374 58.896L132.674 60.2301L161.878 64.7566Z" fill="#8167D7"/>
<path d="M54.1979 62.5472L2.17465 58.896L43.6785 65.329L53.6242 63.7642L54.1979 62.5472Z" fill="#3F3D56"/>
<path d="M43.1048 64.7566L53.0502 63.1918L53.1481 62.9846L53.6242 63.0181L53.0502 64.2351L43.1048 65.7999L1.60092 58.896L13.9005 60.2301L43.1048 64.7566Z" fill="#8167D7"/>
<path d="M180.813 81.4986L176.414 81.6724L136.113 97.1291L133.807 98.8852L126.495 104.449H103.543L96.6311 98.8852L94.0032 96.7692L55.3454 81.8463L51.9027 81.4986L63.3784 76.4564H63.4396C66.0408 74.2118 88.5676 72.4575 115.975 72.4575C143.383 72.4575 165.91 74.2118 168.511 76.4564H168.763L180.813 81.4986Z" fill="#3F3D56"/>
<path d="M63.0632 76.7142C63.1448 76.5058 63.1867 76.2862 63.1872 76.0649V67.807C63.1872 67.2881 62.9604 66.7905 62.5568 66.4236C62.1533 66.0567 61.6059 65.8506 61.0351 65.8506H60.1613C60.8788 65.1924 61.3659 64.3559 61.5613 63.4464C61.7567 62.537 61.6517 61.5953 61.2594 60.7401C60.8672 59.8848 60.2053 59.1542 59.3571 58.6403C58.5089 58.1263 57.5123 57.8521 56.493 57.8521C55.4737 57.8521 54.4771 58.1263 53.629 58.6403C52.7808 59.1542 52.1188 59.8848 51.7266 60.7401C51.3344 61.5953 51.2293 62.537 51.4247 63.4464C51.6202 64.3559 52.1073 65.1924 52.8247 65.8506H51.9509C51.6683 65.8506 51.3885 65.9012 51.1274 65.9995C50.8663 66.0979 50.629 66.242 50.4292 66.4236C50.2294 66.6053 50.0708 66.8209 49.9627 67.0583C49.8545 67.2957 49.7989 67.55 49.7989 67.807V76.0649C49.7987 76.4031 49.8956 76.7354 50.0798 77.0291C49.4303 77.1327 48.7807 77.2451 48.1312 77.3749C47.7355 77.4553 47.3819 77.6561 47.1287 77.9439C46.8755 78.2318 46.7379 78.5896 46.7387 78.9582V80.9202C46.7387 81.3502 46.9266 81.7627 47.2611 82.0668C47.5957 82.3709 48.0494 82.5418 48.5225 82.5418H68.7337V77.6735C66.8675 77.2463 64.9736 76.9259 63.0632 76.7142Z" fill="#3F3D56"/>
<path d="M182.672 77.3749C182.022 77.245 181.373 77.1326 180.723 77.0291C180.908 76.7353 181.004 76.403 181.004 76.0649V67.8069C181.004 67.55 180.949 67.2956 180.84 67.0583C180.732 66.8209 180.574 66.6052 180.374 66.4236C180.174 66.2419 179.937 66.0978 179.676 65.9995C179.415 65.9012 179.135 65.8506 178.852 65.8506H177.978C178.696 65.1924 179.183 64.3558 179.378 63.4464C179.574 62.537 179.469 61.5953 179.076 60.74C178.684 59.8847 178.022 59.1541 177.174 58.6402C176.326 58.1263 175.329 57.8521 174.31 57.8521C173.291 57.8521 172.294 58.1263 171.446 58.6402C170.598 59.1541 169.936 59.8847 169.544 60.74C169.151 61.5953 169.046 62.537 169.242 63.4464C169.437 64.3558 169.924 65.1924 170.642 65.8506H169.768C169.485 65.8506 169.206 65.9012 168.944 65.9995C168.683 66.0978 168.446 66.2419 168.246 66.4236C168.046 66.6052 167.888 66.8209 167.78 67.0583C167.672 67.2956 167.616 67.55 167.616 67.8069V76.0649C167.616 76.2861 167.658 76.5057 167.74 76.7142C165.829 76.9258 163.936 77.2462 162.069 77.6735V82.5417H182.281C182.754 82.5417 183.207 82.3709 183.542 82.0668C183.876 81.7627 184.064 81.3502 184.064 80.9201V78.9581C184.065 78.5895 183.928 78.2318 183.674 77.9439C183.421 77.656 183.068 77.4553 182.672 77.3749Z" fill="#3F3D56"/>
<path d="M176.605 62.5472L228.628 58.896L187.125 65.329L177.179 63.7642L176.605 62.5472Z" fill="#3F3D56"/>
<path d="M119.054 102.884H110.984C110.685 102.884 110.389 102.938 110.113 103.042C109.836 103.146 109.585 103.298 109.374 103.49C109.163 103.682 108.995 103.91 108.881 104.161C108.766 104.413 108.707 104.682 108.707 104.953V106.552C108.708 106.972 108.849 107.382 109.112 107.728C109.374 108.073 109.747 108.338 110.179 108.486C109.845 108.85 109.663 109.309 109.664 109.783V110.242C109.664 110.569 109.751 110.891 109.917 111.181C110.084 111.471 110.325 111.72 110.62 111.907V118.01H119.418V111.907C119.713 111.72 119.954 111.471 120.121 111.181C120.287 110.891 120.374 110.569 120.374 110.242V109.783C120.375 109.309 120.193 108.85 119.859 108.486C120.291 108.338 120.664 108.073 120.927 107.728C121.189 107.382 121.33 106.972 121.331 106.552V104.953C121.331 104.682 121.272 104.413 121.157 104.162C121.043 103.91 120.875 103.682 120.664 103.49C120.453 103.298 120.202 103.146 119.925 103.042C119.649 102.938 119.353 102.884 119.054 102.884Z" fill="#3F3D56"/>
<path d="M106.817 117.147C106.458 117.147 106.114 117.277 105.859 117.508C105.605 117.739 105.462 118.052 105.462 118.379V128.248C105.462 128.575 105.605 128.888 105.859 129.119C106.113 129.35 106.458 129.48 106.817 129.48H123.221C123.58 129.48 123.925 129.35 124.179 129.119C124.433 128.888 124.576 128.575 124.576 128.248V118.379C124.576 118.052 124.433 117.739 124.179 117.508C123.925 117.277 123.58 117.147 123.221 117.147H106.817Z" fill="#8167D7"/>
<path d="M133.807 98.8852L126.495 104.449H103.543L96.6311 98.8852H103.505L103.805 97.5238C103.893 97.1234 104.131 96.7631 104.479 96.5041C104.826 96.2451 105.261 96.1035 105.71 96.1033H124.901C125.351 96.1035 125.786 96.2451 126.133 96.5041C126.481 96.7631 126.718 97.1234 126.806 97.5238L127.107 98.8852H133.807Z" fill="#8167D7"/>
<path d="M115.019 128.182C117.977 128.182 120.374 126.002 120.374 123.313C120.374 120.625 117.977 118.445 115.019 118.445C112.061 118.445 109.664 120.625 109.664 123.313C109.664 126.002 112.061 128.182 115.019 128.182Z" fill="#3F3D56"/>
<path d="M115.019 126.095C116.709 126.095 118.079 124.85 118.079 123.313C118.079 121.777 116.709 120.532 115.019 120.532C113.329 120.532 111.959 121.777 111.959 123.313C111.959 124.85 113.329 126.095 115.019 126.095Z" fill="#E6E6E6"/>
<path d="M116.869 121.101C117.318 121.636 117.538 122.3 117.488 122.972C117.439 123.643 117.123 124.275 116.6 124.751C116.077 125.226 115.381 125.513 114.643 125.558C113.905 125.603 113.174 125.403 112.585 124.995C112.849 125.311 113.184 125.573 113.569 125.761C113.953 125.95 114.377 126.062 114.813 126.089C115.249 126.116 115.686 126.058 116.095 125.919C116.504 125.779 116.875 125.562 117.184 125.281C117.493 125 117.732 124.663 117.885 124.291C118.038 123.919 118.102 123.522 118.072 123.126C118.042 122.73 117.919 122.344 117.712 121.995C117.504 121.646 117.217 121.341 116.869 121.101Z" fill="white"/>
<path d="M184.16 79.4487H46.8343V80.245H184.16V79.4487Z" fill="#E6E6E6"/>
<path d="M187.507 64.7566L177.562 63.1918L177.464 62.9846L176.988 63.0181L177.562 64.2351L187.507 65.7999L229.011 58.896L216.711 60.2301L187.507 64.7566Z" fill="#8167D7"/>
<path d="M58.7881 62.5472L110.811 58.896L69.3074 65.329L59.362 63.7642L58.7881 62.5472Z" fill="#3F3D56"/>
<path d="M69.8814 64.7566L59.9357 63.1918L59.8381 62.9846L59.362 63.0181L59.9357 64.2351L69.8814 65.7999L111.385 58.896L99.0855 60.2301L69.8814 64.7566Z" fill="#8167D7"/>
<path d="M122.956 97.5812H107.655V100.363H122.956V97.5812Z" fill="#E6E6E6"/>
<path d="M66.1034 0H19.7224C18.0768 0.0016882 16.4991 0.596704 15.3354 1.65451C14.1718 2.71232 13.5172 4.14653 13.5154 5.6425V28.0272C13.5172 29.5231 14.1718 30.9573 15.3354 32.0151C16.4991 33.0729 18.0768 33.668 19.7224 33.6697H66.1034C67.749 33.668 69.3267 33.0729 70.4904 32.0151C71.654 30.9573 72.3086 29.5231 72.3104 28.0272V5.6425C72.3086 4.14654 71.654 2.71233 70.4904 1.65452C69.3267 0.596712 67.749 0.00169194 66.1034 0Z" fill="#E6E6E6"/>
<path d="M19.7223 4.59131C19.4158 4.5916 19.1219 4.70244 18.9051 4.89951C18.6883 5.09657 18.5664 5.36376 18.566 5.64245V28.0272C18.5664 28.3059 18.6883 28.5731 18.9051 28.7701C19.1219 28.9672 19.4158 29.078 19.7223 29.0783H66.1034C66.41 29.078 66.7039 28.9672 66.9207 28.7701C67.1375 28.5731 67.2594 28.3059 67.2597 28.0272V5.64245C67.2594 5.36376 67.1375 5.09657 66.9207 4.89951C66.7039 4.70244 66.41 4.5916 66.1034 4.59131H19.7223Z" fill="white"/>
<path d="M41.9744 26.7186C41.9586 26.7186 41.9427 26.7182 41.9267 26.7174C41.7372 26.7077 41.5569 26.6396 41.4156 26.5243C41.2743 26.4091 41.1803 26.2536 41.1491 26.0833L38.4647 11.4421L36.0946 20.0604C36.0494 20.2249 35.9449 20.3709 35.7979 20.4753C35.6509 20.5796 35.4697 20.6363 35.2832 20.6363H31.9378C31.716 20.6363 31.5033 20.5562 31.3464 20.4136C31.1896 20.2711 31.1014 20.0777 31.1014 19.876C31.1014 19.6744 31.1896 19.481 31.3464 19.3384C31.5033 19.1959 31.716 19.1157 31.9378 19.1157H34.6302L37.8172 7.52706C37.8638 7.35751 37.9733 7.20773 38.1271 7.10294C38.281 6.99815 38.4699 6.94474 38.662 6.95172C38.8541 6.95869 39.0377 7.02562 39.1819 7.14123C39.326 7.25683 39.422 7.41407 39.4536 7.58646L42.1891 22.5066L44.5153 15.1054C44.5643 14.9493 44.6671 14.8115 44.8086 14.7123C44.95 14.6132 45.1227 14.5577 45.3013 14.5542C45.4799 14.5507 45.655 14.5992 45.8011 14.6927C45.9471 14.7863 46.0564 14.9198 46.1129 15.0739L47.595 19.1157H50.3376C50.5594 19.1157 50.7721 19.1959 50.929 19.3384C51.0858 19.481 51.1739 19.6744 51.1739 19.876C51.1739 20.0777 51.0858 20.2711 50.929 20.4136C50.7721 20.5562 50.5594 20.6363 50.3376 20.6363H46.9922C46.8166 20.6363 46.6455 20.5861 46.5031 20.4928C46.3607 20.3995 46.2542 20.2678 46.1987 20.1165L45.3809 17.8862L42.7782 26.1672C42.7283 26.326 42.6228 26.4657 42.4778 26.5652C42.3328 26.6647 42.1561 26.7185 41.9744 26.7186Z" fill="#8167D7"/>
<path d="M52.2637 22.1247C53.6227 22.1247 54.7244 21.1232 54.7244 19.8879C54.7244 18.6525 53.6227 17.6511 52.2637 17.6511C50.9048 17.6511 49.8031 18.6525 49.8031 19.8879C49.8031 21.1232 50.9048 22.1247 52.2637 22.1247Z" fill="#3F3D56"/>
<path d="M138.108 0H91.7269C90.0813 0.00169194 88.5036 0.596712 87.3399 1.65452C86.1763 2.71233 85.5217 4.14654 85.5199 5.6425V28.0272C85.5217 29.5231 86.1763 30.9573 87.3399 32.0151C88.5036 33.0729 90.0813 33.668 91.7269 33.6697H138.108C139.754 33.668 141.331 33.0729 142.495 32.0151C143.659 30.9573 144.313 29.5231 144.315 28.0272V5.6425C144.313 4.14654 143.659 2.71233 142.495 1.65452C141.331 0.596708 139.754 0.0016907 138.108 0Z" fill="#E6E6E6"/>
<path d="M91.7269 4.59131C91.4203 4.5916 91.1264 4.70244 90.9096 4.89951C90.6928 5.09657 90.5709 5.36376 90.5706 5.64245V28.0272C90.5709 28.3059 90.6928 28.5731 90.9096 28.7701C91.1264 28.9672 91.4203 29.078 91.7269 29.0783H138.108C138.415 29.078 138.708 28.9672 138.925 28.7701C139.142 28.5731 139.264 28.3059 139.264 28.0272V5.64245C139.264 5.36376 139.142 5.09657 138.925 4.89951C138.708 4.70244 138.415 4.5916 138.108 4.59131H91.7269Z" fill="white"/>
<path d="M114.917 18.0398C118.296 18.0398 121.035 15.5498 121.035 12.4783C121.035 9.40673 118.296 6.91675 114.917 6.91675C111.539 6.91675 108.799 9.40673 108.799 12.4783C108.799 15.5498 111.539 18.0398 114.917 18.0398Z" fill="#8167D7"/>
<path d="M114.917 18.9667H114.917C117.081 18.9667 119.156 19.748 120.685 21.1387C122.215 22.5293 123.075 24.4154 123.075 26.3821V26.7529H106.76V26.3821C106.76 24.4154 107.62 22.5293 109.149 21.1387C110.679 19.748 112.754 18.9667 114.917 18.9667Z" fill="#8167D7"/>
<path d="M102.478 20.8206C104.843 20.8206 106.76 19.0776 106.76 16.9275C106.76 14.7774 104.843 13.0344 102.478 13.0344C100.112 13.0344 98.1949 14.7774 98.1949 16.9275C98.1949 19.0776 100.112 20.8206 102.478 20.8206Z" fill="#3F3D56"/>
<path d="M106.672 22.6093C105.849 21.9459 104.832 21.5127 103.745 21.3619C102.657 21.2112 101.545 21.3493 100.542 21.7596C99.5385 22.1699 98.6871 22.835 98.0899 23.6748C97.4926 24.5146 97.175 25.4934 97.1753 26.4934V26.7529H105.537V26.3822C105.535 25.0546 105.927 23.7512 106.672 22.6093Z" fill="#3F3D56"/>
<path d="M127.357 20.8206C129.722 20.8206 131.64 19.0776 131.64 16.9275C131.64 14.7774 129.722 13.0344 127.357 13.0344C124.992 13.0344 123.075 14.7774 123.075 16.9275C123.075 19.0776 124.992 20.8206 127.357 20.8206Z" fill="#3F3D56"/>
<path d="M123.163 22.6093C123.986 21.9459 125.003 21.5127 126.09 21.3619C127.178 21.2112 128.29 21.3493 129.293 21.7596C130.296 22.1699 131.148 22.835 131.745 23.6748C132.342 24.5146 132.66 25.4934 132.66 26.4934V26.7529H124.298V26.3822C124.3 25.0546 123.908 23.7512 123.163 22.6093V22.6093Z" fill="#3F3D56"/>
<path d="M210.112 0H163.731C162.086 0.00168758 160.508 0.596704 159.344 1.65451C158.181 2.71232 157.526 4.14653 157.524 5.6425V28.0272C157.526 29.5231 158.181 30.9573 159.344 32.0151C160.508 33.0729 162.086 33.668 163.731 33.6697H210.112C211.758 33.668 213.336 33.0729 214.499 32.0151C215.663 30.9573 216.318 29.5231 216.319 28.0272V5.6425C216.318 4.14654 215.663 2.71233 214.499 1.65452C213.336 0.596708 211.758 0.0016907 210.112 0Z" fill="#E6E6E6"/>
<path d="M186.145 27.1862C186.046 27.1862 185.947 27.1683 185.855 27.1336C185.763 27.099 185.679 27.0481 185.609 26.984C185.538 26.92 185.482 26.8439 185.444 26.7602C185.406 26.6764 185.386 26.5867 185.386 26.4961V20.9754C185.387 20.7926 185.467 20.6174 185.609 20.4882C185.751 20.3591 185.944 20.2866 186.145 20.2866C186.346 20.2866 186.539 20.3591 186.682 20.4882C186.824 20.6174 186.904 20.7926 186.904 20.9754V26.4961C186.904 26.5867 186.885 26.6764 186.847 26.7602C186.809 26.8439 186.753 26.92 186.682 26.984C186.612 27.0481 186.528 27.099 186.436 27.1336C186.344 27.1683 186.245 27.1862 186.145 27.1862Z" fill="#8167D7"/>
<path d="M188.802 24.4258H183.488C183.287 24.4258 183.094 24.3531 182.952 24.2236C182.809 24.0942 182.729 23.9187 182.729 23.7357C182.729 23.5527 182.809 23.3771 182.952 23.2477C183.094 23.1183 183.287 23.0456 183.488 23.0456H188.802C189.004 23.0456 189.197 23.1183 189.339 23.2477C189.481 23.3771 189.561 23.5527 189.561 23.7357C189.561 23.9187 189.481 24.0942 189.339 24.2236C189.197 24.3531 189.004 24.4258 188.802 24.4258Z" fill="#8167D7"/>
<path d="M196.394 11.3141C196.294 11.3141 196.195 11.2963 196.103 11.2616C196.011 11.2269 195.927 11.1761 195.857 11.112C195.786 11.0479 195.73 10.9719 195.692 10.8881C195.654 10.8044 195.634 10.7147 195.634 10.624V7.86369H192.598C192.498 7.86369 192.4 7.84585 192.307 7.81117C192.215 7.77649 192.132 7.72565 192.061 7.66157C191.991 7.59749 191.935 7.52142 191.897 7.43769C191.858 7.35397 191.839 7.26423 191.839 7.17361C191.839 7.08299 191.858 6.99325 191.897 6.90952C191.935 6.8258 191.991 6.74972 192.061 6.68564C192.132 6.62156 192.215 6.57073 192.307 6.53605C192.4 6.50137 192.498 6.48352 192.598 6.48352H196.394C196.493 6.48352 196.592 6.50137 196.684 6.53605C196.776 6.57073 196.86 6.62156 196.93 6.68564C197.001 6.74972 197.057 6.8258 197.095 6.90952C197.133 6.99325 197.153 7.08299 197.153 7.17361V10.624C197.153 10.7147 197.133 10.8044 197.095 10.8881C197.057 10.9719 197.001 11.0479 196.93 11.112C196.86 11.1761 196.776 11.2269 196.684 11.2616C196.592 11.2963 196.493 11.3141 196.394 11.3141Z" fill="#8167D7"/>
<path d="M191.805 12.0353C191.655 12.0353 191.508 11.9948 191.383 11.9189C191.258 11.8431 191.161 11.7353 191.103 11.6092C191.046 11.4831 191.031 11.3444 191.06 11.2105C191.089 11.0767 191.162 10.9537 191.268 10.8572L195.857 6.68561C195.999 6.55647 196.192 6.48401 196.393 6.48413C196.595 6.48425 196.787 6.55696 196.93 6.68626C197.072 6.81557 197.152 6.99092 197.152 7.17378C197.152 7.35665 197.072 7.53208 196.93 7.66156L192.341 11.8331C192.271 11.8973 192.187 11.9482 192.095 11.9829C192.003 12.0176 191.904 12.0354 191.805 12.0353Z" fill="#8167D7"/>
<path d="M230 129.472H0V130H230V129.472Z" fill="#3F3D56"/>
</svg>
